<svg width="21" height="20" viewBox="0 0 21 20" fill="none" xmlns="http://www.w3.org/2000/svg">
<g id="Frame">
<path id="Vector" d="M9.52228 4.02458C9.15617 3.65847 8.56257 3.65847 8.19646 4.02458C7.83035 4.3907 7.83035 4.9843 8.19646 5.35041L9.52228 4.02458ZM14.1719 10L14.8347 10.6629C15.2009 10.2968 15.2009 9.7032 14.8347 9.33708L14.1719 10ZM8.19646 14.6496C7.83035 15.0157 7.83035 15.6092 8.19646 15.9754C8.56257 16.3415 9.15617 16.3415 9.52228 15.9754L8.19646 14.6496ZM8.19646 5.35041L13.509 10.6629L14.8347 9.33708L9.52228 4.02458L8.19646 5.35041ZM13.509 9.33708L8.19646 14.6496L9.52228 15.9754L14.8347 10.6629L13.509 9.33708Z" fill="white"/>
<g id="Line">
<path d="M2.60938 10H14.1719H2.60938Z" fill="white"/>
<path d="M2.60938 10H14.1719" stroke="white" stroke-width="1.875" stroke-linecap="round" stroke-dasharray="12.5 12.5"/>
</g>
</g>
</svg>
