<svg width="20" height="20" viewBox="0 0 20 20" fill="none" xmlns="http://www.w3.org/2000/svg">
<g id="Frame">
<path id="Vector" d="M9.10041 4.02458C8.7343 3.65847 8.1407 3.65847 7.77458 4.02458C7.40847 4.3907 7.40847 4.9843 7.77458 5.35041L9.10041 4.02458ZM13.75 10L14.4129 10.6629C14.779 10.2968 14.779 9.7032 14.4129 9.33708L13.75 10ZM7.77458 14.6496C7.40847 15.0157 7.40847 15.6092 7.77458 15.9754C8.1407 16.3415 8.7343 16.3415 9.10041 15.9754L7.77458 14.6496ZM7.77458 5.35041L13.0871 10.6629L14.4129 9.33708L9.10041 4.02458L7.77458 5.35041ZM13.0871 9.33708L7.77458 14.6496L9.10041 15.9754L14.4129 10.6629L13.0871 9.33708Z" fill="#F470D0"/>
<g id="Line">
<path d="M2.1875 10H13.75H2.1875Z" fill="#F470D0"/>
<path d="M2.1875 10H13.75" stroke="#F470D0" stroke-width="1.875" stroke-linecap="round" stroke-dasharray="12.5 12.5"/>
</g>
</g>
</svg>
