<svg width="21" height="20" viewBox="0 0 21 20" fill="none" xmlns="http://www.w3.org/2000/svg">
<g id="Frame">
<path id="Vector" d="M10.0223 4.02458C9.65617 3.65847 9.06257 3.65847 8.69646 4.02458C8.33035 4.3907 8.33035 4.9843 8.69646 5.35041L10.0223 4.02458ZM14.6719 10L15.3347 10.6629C15.7009 10.2968 15.7009 9.7032 15.3347 9.33708L14.6719 10ZM8.69646 14.6496C8.33035 15.0157 8.33035 15.6092 8.69646 15.9754C9.06257 16.3415 9.65617 16.3415 10.0223 15.9754L8.69646 14.6496ZM8.69646 5.35041L14.009 10.6629L15.3347 9.33708L10.0223 4.02458L8.69646 5.35041ZM14.009 9.33708L8.69646 14.6496L10.0223 15.9754L15.3347 10.6629L14.009 9.33708Z" fill="#0D1117"/>
<g id="Line">
<path d="M3.10938 10H14.6719H3.10938Z" fill="#0D1117"/>
<path d="M3.10938 10H14.6719" stroke="#0D1117" stroke-width="1.875" stroke-linecap="round" stroke-dasharray="12.5 12.5"/>
</g>
</g>
</svg>
