<svg width="17" height="16" viewBox="0 0 17 16" fill="none" xmlns="http://www.w3.org/2000/svg">
<g id="Frame">
<path id="Vector" d="M7.48345 3.21967C7.19056 2.92678 6.71568 2.92678 6.42279 3.21967C6.1299 3.51256 6.1299 3.98744 6.42279 4.28033L7.48345 3.21967ZM11.2031 8L11.7334 8.53033C12.0263 8.23744 12.0263 7.76256 11.7334 7.46967L11.2031 8ZM6.42279 11.7197C6.1299 12.0126 6.1299 12.4874 6.42279 12.7803C6.71568 13.0732 7.19056 13.0732 7.48345 12.7803L6.42279 11.7197ZM6.42279 4.28033L10.6728 8.53033L11.7334 7.46967L7.48345 3.21967L6.42279 4.28033ZM10.6728 7.46967L6.42279 11.7197L7.48345 12.7803L11.7334 8.53033L10.6728 7.46967Z" fill="white"/>
<g id="Line">
<path d="M1.95312 8H11.2031H1.95312Z" fill="white"/>
<path d="M1.95312 8H11.2031" stroke="white" stroke-width="1.5" stroke-linecap="round" stroke-dasharray="10 10"/>
</g>
</g>
</svg>
