<svg width="33" height="33" viewBox="0 0 33 33" fill="none" xmlns="http://www.w3.org/2000/svg">
<path d="M4.49625 9.56999L16.5 16.5137L28.5037 9.56999M16.5 30.36V16.5M28.875 22V11C28.8745 10.5177 28.7472 10.0441 28.5059 9.62659C28.2645 9.20907 27.9176 8.86236 27.5 8.62124L17.875 3.12124C17.4569 2.87987 16.9827 2.75281 16.5 2.75281C16.0173 2.75281 15.5431 2.87987 15.125 3.12124L5.5 8.62124C5.08236 8.86236 4.73547 9.20907 4.49413 9.62659C4.2528 10.0441 4.12549 10.5177 4.125 11V22C4.12549 22.4822 4.2528 22.9559 4.49413 23.3734C4.73547 23.7909 5.08236 24.1376 5.5 24.3787L15.125 29.8787C15.5431 30.1201 16.0173 30.2472 16.5 30.2472C16.9827 30.2472 17.4569 30.1201 17.875 29.8787L27.5 24.3787C27.9176 24.1376 28.2645 23.7909 28.5059 23.3734C28.7472 22.9559 28.8745 22.4822 28.875 22Z" stroke="#625AFA" stroke-width="3" stroke-linecap="round" stroke-linejoin="round"/>
</svg>
