<svg width="20" height="20" viewBox="0 0 20 20" fill="none" xmlns="http://www.w3.org/2000/svg">
<g id="checklist-24">
<g id="Icon">
<path d="M2.91675 3.12533C2.91675 3.01027 3.01002 2.91699 3.12508 2.91699H14.3751C14.4901 2.91699 14.5834 3.01027 14.5834 3.12533V11.4587C14.5834 11.8038 14.8632 12.0837 15.2084 12.0837C15.5536 12.0837 15.8334 11.8038 15.8334 11.4587V3.12533C15.8334 2.31991 15.1805 1.66699 14.3751 1.66699H3.12508C2.31967 1.66699 1.66675 2.31991 1.66675 3.12533V16.8753C1.66675 17.6807 2.31967 18.3337 3.12508 18.3337H8.95842C9.30359 18.3337 9.58342 18.0538 9.58342 17.7087C9.58342 17.3635 9.30359 17.0837 8.95842 17.0837H3.12508C3.01002 17.0837 2.91675 16.9904 2.91675 16.8753V3.12533Z" fill="#625AFA"/>
<path d="M5.20841 5.83366C4.86324 5.83366 4.58341 6.11348 4.58341 6.45866C4.58341 6.80384 4.86324 7.08366 5.20841 7.08366H12.2917C12.6369 7.08366 12.9167 6.80384 12.9167 6.45866C12.9167 6.11348 12.6369 5.83366 12.2917 5.83366H5.20841Z" fill="#625AFA"/>
<path d="M4.58341 9.79199C4.58341 9.44682 4.86324 9.16699 5.20841 9.16699H8.95842C9.30359 9.16699 9.58342 9.44682 9.58342 9.79199C9.58342 10.1372 9.30359 10.417 8.95842 10.417H5.20841C4.86324 10.417 4.58341 10.1372 4.58341 9.79199Z" fill="#625AFA"/>
<path d="M18.1504 13.5673C18.3944 13.3232 18.3944 12.9275 18.1504 12.6834C17.9063 12.4393 17.5106 12.4393 17.2665 12.6834L13.1251 16.8248L11.4837 15.1834C11.2396 14.9393 10.8439 14.9393 10.5998 15.1834C10.3557 15.4275 10.3557 15.8232 10.5998 16.0673L12.6831 18.1506C12.9272 18.3947 13.3229 18.3947 13.567 18.1506L18.1504 13.5673Z" fill="#625AFA"/>
<path d="M2.91675 3.12533C2.91675 3.01027 3.01002 2.91699 3.12508 2.91699H14.3751C14.4901 2.91699 14.5834 3.01027 14.5834 3.12533V11.4587C14.5834 11.8038 14.8632 12.0837 15.2084 12.0837C15.5536 12.0837 15.8334 11.8038 15.8334 11.4587V3.12533C15.8334 2.31991 15.1805 1.66699 14.3751 1.66699H3.12508C2.31967 1.66699 1.66675 2.31991 1.66675 3.12533V16.8753C1.66675 17.6807 2.31967 18.3337 3.12508 18.3337H8.95842C9.30359 18.3337 9.58342 18.0538 9.58342 17.7087C9.58342 17.3635 9.30359 17.0837 8.95842 17.0837H3.12508C3.01002 17.0837 2.91675 16.9904 2.91675 16.8753V3.12533Z" stroke="#625AFA" stroke-width="0.8" stroke-linecap="round" stroke-linejoin="round"/>
<path d="M5.20841 5.83366C4.86324 5.83366 4.58341 6.11348 4.58341 6.45866C4.58341 6.80384 4.86324 7.08366 5.20841 7.08366H12.2917C12.6369 7.08366 12.9167 6.80384 12.9167 6.45866C12.9167 6.11348 12.6369 5.83366 12.2917 5.83366H5.20841Z" stroke="#625AFA" stroke-width="0.8" stroke-linecap="round" stroke-linejoin="round"/>
<path d="M4.58341 9.79199C4.58341 9.44682 4.86324 9.16699 5.20841 9.16699H8.95842C9.30359 9.16699 9.58342 9.44682 9.58342 9.79199C9.58342 10.1372 9.30359 10.417 8.95842 10.417H5.20841C4.86324 10.417 4.58341 10.1372 4.58341 9.79199Z" stroke="#625AFA" stroke-width="0.8" stroke-linecap="round" stroke-linejoin="round"/>
<path d="M18.1504 13.5673C18.3944 13.3232 18.3944 12.9275 18.1504 12.6834C17.9063 12.4393 17.5106 12.4393 17.2665 12.6834L13.1251 16.8248L11.4837 15.1834C11.2396 14.9393 10.8439 14.9393 10.5998 15.1834C10.3557 15.4275 10.3557 15.8232 10.5998 16.0673L12.6831 18.1506C12.9272 18.3947 13.3229 18.3947 13.567 18.1506L18.1504 13.5673Z" stroke="#625AFA" stroke-width="0.8" stroke-linecap="round" stroke-linejoin="round"/>
</g>
</g>
</svg>
