<svg width="16" height="16" viewBox="0 0 16 16" fill="none" xmlns="http://www.w3.org/2000/svg">
<g id="clock">
<path id="Glyph" fill-rule="evenodd" clip-rule="evenodd" d="M16 8C16 12.4183 12.4183 16 8 16C3.58172 16 0 12.4183 0 8C0 3.58172 3.58172 0 8 0C12.4183 0 16 3.58172 16 8ZM11.0981 8.63397L9 7.42265V4C9 3.44772 8.55229 3 8 3C7.44772 3 7 3.44772 7 4V8C7 8.37696 7.20858 8.70521 7.51662 8.87562L10.0981 10.366C10.5764 10.6422 11.188 10.4783 11.4641 10C11.7402 9.52171 11.5764 8.91012 11.0981 8.63397Z" fill="white"/>
</g>
</svg>
