<svg width="18" height="19" viewBox="0 0 18 19" fill="none" xmlns="http://www.w3.org/2000/svg">
<g id="core/ic_information">
<path id="ic_information" fill-rule="evenodd" clip-rule="evenodd" d="M1.5 9.5C1.5 5.375 4.875 2 9 2C13.125 2 16.5 5.375 16.5 9.5C16.5 13.625 13.125 17 9 17C4.875 17 1.5 13.625 1.5 9.5ZM9 7.25C9.82843 7.25 10.5 6.74632 10.5 6.125C10.5 5.50368 9.82843 5 9 5C8.17157 5 7.5 5.50368 7.5 6.125C7.5 6.74632 8.17157 7.25 9 7.25ZM10.125 12.5V8.5C10.125 8.22386 9.90114 8 9.625 8H9H7.875H7.25C6.97386 8 6.75 8.22386 6.75 8.5V9C6.75 9.27614 6.97386 9.5 7.25 9.5H7.875V12.5H7.25C6.97386 12.5 6.75 12.7239 6.75 13V13.5C6.75 13.7761 6.97386 14 7.25 14H10.75C11.0261 14 11.25 13.7761 11.25 13.5V13C11.25 12.7239 11.0261 12.5 10.75 12.5H10.125Z" fill="white"/>
</g>
</svg>
