<svg width="194" height="219" viewBox="0 0 194 219" fill="none" xmlns="http://www.w3.org/2000/svg">
<g id="Group 3740">
<g id="Vector">
<path d="M80.1212 171.964V37.8598L128.604 26.624V200.235L99.2287 218.295C98.0745 219.005 96.6303 219.029 95.4537 218.358L2.64818 165.434C1.4774 164.766 0.753444 163.514 0.753444 162.157V125.571L80.1212 171.964Z" fill="#5A61FF"/>
<path d="M94.9871 0.488468L1.92724 53.6591C0.757952 54.3272 0.0351562 55.5784 0.0351562 56.9345V95.851L96.821 39.46L193.965 93.3043V56.9384C193.965 55.5802 193.24 54.3274 192.068 53.6601L98.6566 0.485537C97.5175 -0.162888 96.1251 -0.161777 94.9871 0.488468Z" fill="#C388FF"/>
<path d="M80.1212 171.964L193.965 101.288V56.7299C193.965 56.2418 193.437 55.9407 193.023 56.1926L80.1211 124.847L80.1212 171.964Z" fill="#78C6FF"/>
<path d="M167.39 175.531V116.873L193.965 101.288L193.965 163.406C193.965 164.213 193.527 164.954 192.824 165.338L170.6 177.462C169.15 178.253 167.39 177.194 167.39 175.531Z" fill="#5A61FF"/>
<path d="M80.1212 171.964L128.604 141.881V200.235L80.1212 171.964Z" fill="#C388FF"/>
</g>
</g>
</svg>
