<svg width="18" height="19" viewBox="0 0 18 19" fill="none" xmlns="http://www.w3.org/2000/svg">
<g id="Frame" clip-path="url(#clip0_1281_3715)">
<path id="Vector" d="M17.007 0.5H0.994029C0.733668 0.523673 0.49209 0.645601 0.318402 0.841C0.144713 1.0364 0.0519488 1.29061 0.0589645 1.55195V17.4481C0.0519488 17.7094 0.144713 17.9636 0.318402 18.159C0.49209 18.3544 0.733668 18.4763 0.994029 18.5H9.5265V11.487H7.18883V8.7987H9.5265V6.81169C9.45012 5.94702 9.71189 5.0864 10.2568 4.41071C10.8017 3.73501 11.5873 3.29685 12.4486 3.18831H13.033C13.7363 3.16895 14.44 3.20805 15.1369 3.3052V5.75974H13.6174C12.4486 5.75974 12.3317 6.34416 12.3317 7.04545V8.7987H15.02L14.6694 11.487H12.3317V18.3831H16.8901C17.1515 18.3901 17.4057 18.2974 17.6011 18.1237C17.7965 17.95 17.9184 17.7084 17.9421 17.4481V1.43506C17.9257 1.19247 17.8219 0.964053 17.65 0.792123C17.478 0.620193 17.2496 0.516409 17.007 0.5Z" fill="#959DA5"/>
</g>
<defs>
<clipPath id="clip0_1281_3715">
<rect width="17.8831" height="18" fill="white" transform="translate(0.0585938 0.5)"/>
</clipPath>
</defs>
</svg>
