<svg width="106" height="24" viewBox="0 0 106 24" fill="none" xmlns="http://www.w3.org/2000/svg">
<g id="TIADA">
<path d="M10.2428 24C8.80461 24 7.63871 22.8341 7.63871 21.3959V8.19253C7.63871 6.08316 5.92873 4.37318 3.81935 4.37318H2.18659C0.978967 4.37318 0 3.39421 0 2.18659C0 0.978969 0.978969 0 2.18659 0H18.3338C19.5414 0 20.5204 0.978969 20.5204 2.18659C20.5204 3.39421 19.5414 4.37318 18.3338 4.37318H16.6836C14.5647 4.37318 12.8469 6.09093 12.8469 8.20989V21.3959C12.8469 22.8341 11.681 24 10.2428 24Z" fill="#F7F9FB"/>
<path d="M26.6009 24C25.1723 24 24.0142 22.8419 24.0142 21.4133V2.58674C24.0142 1.15812 25.1723 0 26.6009 0C28.0296 0 29.1877 1.15812 29.1877 2.58674V21.4133C29.1877 22.8419 28.0296 24 26.6009 24Z" fill="#F7F9FB"/>
<path d="M35.6309 24C33.8921 24 32.6926 22.2579 33.313 20.6336L40.2111 2.57281C40.8028 1.02347 42.2893 0 43.9478 0H44.8284C46.4869 0 47.9733 1.02347 48.5651 2.57281L55.4047 20.4805C56.0533 22.1787 54.7993 24 52.9815 24C51.8878 24 50.9117 23.3141 50.541 22.2852L50.3081 21.6385C49.7977 20.2216 48.4534 19.277 46.9473 19.277H41.5858C40.0797 19.277 38.7354 20.2216 38.225 21.6385L37.9652 22.3597C37.6107 23.3439 36.677 24 35.6309 24ZM41.8158 11.5975C41.2083 13.2933 42.4652 15.0787 44.2665 15.0787C46.0679 15.0787 47.3248 13.2933 46.7173 11.5975L45.8464 9.16618C45.7538 8.90962 45.638 8.60641 45.4992 8.25656C45.3834 7.88338 45.2561 7.47522 45.1172 7.03207C44.9783 6.58892 44.8395 6.15744 44.7006 5.73761C44.5953 5.33439 44.4899 4.96978 44.3846 4.6438C44.3662 4.5866 44.3128 4.5481 44.2527 4.5481C44.1893 4.5481 44.1339 4.59085 44.1176 4.65213C44.0059 5.07272 43.8645 5.56282 43.6936 6.12245C43.5085 6.70554 43.3233 7.27697 43.1381 7.83674C42.9529 8.37318 42.8025 8.81633 42.6867 9.16618L41.8158 11.5975Z" fill="#F7F9FB"/>
<path d="M63.5833 24C61.3742 24 59.5833 22.2091 59.5833 20V4C59.5833 1.79086 61.3742 0 63.5833 0H69.3053C71.7821 0 73.8885 0.431487 75.6246 1.29446C77.3607 2.15743 78.6917 3.47522 79.6176 5.24781C80.5666 6.99709 81.0411 9.24781 81.0411 12C81.0411 14.7289 80.5666 16.9796 79.6176 18.7522C78.6917 20.5248 77.3607 21.8426 75.6246 22.7055C73.8885 23.5685 71.7821 24 69.3053 24H63.5833ZM64.7568 15.6968C64.7568 17.9059 66.5477 19.6968 68.7568 19.6968H69.2706C70.3122 19.6968 71.2381 19.5452 72.0483 19.242C72.8585 18.9388 73.5297 18.4956 74.0621 17.9125C74.5945 17.3061 74.9996 16.5598 75.2774 15.6735C75.5552 14.7638 75.694 13.7143 75.694 12.5248V11.4752C75.694 10.2857 75.5552 9.24781 75.2774 8.36152C74.9996 7.4519 74.5945 6.70554 74.0621 6.12245C73.5297 5.51604 72.8585 5.06123 72.0483 4.75802C71.2381 4.43149 70.3122 4.26822 69.2706 4.26822H68.7568C66.5477 4.26822 64.7568 6.05908 64.7568 8.26822V15.6968Z" fill="#F7F9FB"/>
<path d="M85.882 24C84.1432 24 82.9437 22.2579 83.5641 20.6336L90.4622 2.57281C91.0539 1.02347 92.5404 0 94.1989 0H95.0795C96.738 0 98.2244 1.02347 98.8162 2.57281L105.656 20.4805C106.304 22.1787 105.05 24 103.233 24C102.139 24 101.163 23.3141 100.792 22.2852L100.559 21.6385C100.049 20.2216 98.7045 19.277 97.1984 19.277H91.8369C90.3308 19.277 88.9865 20.2216 88.4761 21.6385L88.2163 22.3597C87.8618 23.3439 86.9281 24 85.882 24ZM92.0669 11.5975C91.4594 13.2933 92.7163 15.0787 94.5176 15.0787C96.319 15.0787 97.5759 13.2933 96.9684 11.5975L96.0975 9.16618C96.0049 8.90962 95.8891 8.60641 95.7503 8.25656C95.6345 7.88338 95.5072 7.47522 95.3683 7.03207C95.2294 6.58892 95.0905 6.15744 94.9517 5.73761C94.8464 5.33439 94.741 4.96978 94.6357 4.6438C94.6173 4.5866 94.5639 4.5481 94.5038 4.5481C94.4404 4.5481 94.385 4.59085 94.3687 4.65213C94.257 5.07272 94.1156 5.56282 93.9447 6.12245C93.7596 6.70554 93.5744 7.27697 93.3892 7.83674C93.204 8.37318 93.0536 8.81633 92.9378 9.16618L92.0669 11.5975Z" fill="#F7F9FB"/>
</g>
</svg>
