<svg width="16" height="17" viewBox="0 0 16 17" fill="none" xmlns="http://www.w3.org/2000/svg">
<g id="Frame">
<path id="Vector" d="M1 8.275V3.25C1 2.284 1.784 1.5 2.75 1.5H7.775C8.239 1.5 8.685 1.684 9.013 2.013L15.263 8.263C15.5909 8.59115 15.7751 9.03609 15.7751 9.5C15.7751 9.96391 15.5909 10.4088 15.263 10.737L10.237 15.763C9.90885 16.0909 9.46391 16.2751 9 16.2751C8.53609 16.2751 8.09115 16.0909 7.763 15.763L1.513 9.513C1.1847 9.18462 1.00019 8.73934 1 8.275ZM2.5 8.275C2.5 8.341 2.526 8.405 2.573 8.452L8.823 14.702C8.84622 14.7253 8.87381 14.7438 8.90418 14.7564C8.93456 14.769 8.96712 14.7754 9 14.7754C9.03288 14.7754 9.06544 14.769 9.09582 14.7564C9.12619 14.7438 9.15378 14.7253 9.177 14.702L14.202 9.677C14.2253 9.65378 14.2438 9.62619 14.2564 9.59582C14.269 9.56544 14.2754 9.53288 14.2754 9.5C14.2754 9.46712 14.269 9.43456 14.2564 9.40418C14.2438 9.37381 14.2253 9.34622 14.202 9.323L7.952 3.073C7.92874 3.0498 7.90114 3.03141 7.87077 3.01888C7.84039 3.00636 7.80785 2.99994 7.775 3H2.75C2.6837 3 2.62011 3.02634 2.57322 3.07322C2.52634 3.12011 2.5 3.1837 2.5 3.25V8.275ZM6 5.5C6.26522 5.5 6.51957 5.60536 6.70711 5.79289C6.89464 5.98043 7 6.23478 7 6.5C7 6.76522 6.89464 7.01957 6.70711 7.20711C6.51957 7.39464 6.26522 7.5 6 7.5C5.73478 7.5 5.48043 7.39464 5.29289 7.20711C5.10536 7.01957 5 6.76522 5 6.5C5 6.23478 5.10536 5.98043 5.29289 5.79289C5.48043 5.60536 5.73478 5.5 6 5.5Z" fill="#3FB950"/>
</g>
</svg>
