<svg width="21" height="24" viewBox="0 0 21 24" fill="none" xmlns="http://www.w3.org/2000/svg">
<path d="M8.67222 18.8588V4.15196L13.9222 2.91976V21.9591L10.7413 23.9397C10.6163 24.0176 10.4599 24.0202 10.3325 23.9466L0.282955 18.1426C0.156176 18.0693 0.0777808 17.932 0.0777808 17.7832V13.771L8.67222 18.8588Z" fill="#5A61FF"/>
<path d="M10.282 0.0535687L0.204887 5.88461C0.0782689 5.95788 0 6.0951 0 6.24382V10.5117L10.4806 4.32745L21 10.2324V6.24425C21 6.0953 20.9215 5.95791 20.7945 5.88473L10.6794 0.0532473C10.556 -0.0178634 10.4052 -0.0177415 10.282 0.0535687Z" fill="#C388FF"/>
<path d="M8.67222 18.8588L21 11.1079V6.22138C21 6.16785 20.9428 6.13483 20.898 6.16246L8.67222 13.6915L8.67222 18.8588Z" fill="#78C6FF"/>
<path d="M18.1222 19.2499V12.817L21 11.1079L21 17.9203C21 18.0087 20.9526 18.09 20.8764 18.1321L18.4698 19.4617C18.3129 19.5484 18.1222 19.4322 18.1222 19.2499Z" fill="#5A61FF"/>
<path d="M8.67222 18.8588L13.9222 15.5597L13.9222 21.9591L8.67222 18.8588Z" fill="#C388FF"/>
</svg>
