<svg width="9" height="10" viewBox="0 0 9 10" fill="none" xmlns="http://www.w3.org/2000/svg">
<path id="H" d="M8.66683 8.86233C8.66683 9.45631 8.18531 9.93783 7.59133 9.93783C6.99735 9.93783 6.51583 9.45631 6.51583 8.86233V7.66903C6.51583 6.56447 5.60473 5.66903 4.50016 5.66903C3.39559 5.66903 2.48449 6.56447 2.48449 7.66903V8.86233C2.48449 9.45631 2.00298 9.93783 1.40899 9.93783C0.815013 9.93783 0.333496 9.45631 0.333496 8.86233V1.11749C0.333496 0.523508 0.815013 0.0419922 1.40899 0.0419922C2.00298 0.0419922 2.48449 0.523509 2.48449 1.11749V1.98235C2.48449 3.05398 3.35322 3.92271 4.42485 3.92271H4.57547C5.6471 3.92271 6.51583 3.05398 6.51583 1.98235V1.11749C6.51583 0.523508 6.99735 0.0419922 7.59133 0.0419922C8.18531 0.0419922 8.66683 0.523509 8.66683 1.11749V8.86233Z" fill="white"/>
</svg>
