<svg width="20" height="20" viewBox="0 0 20 20" fill="none" xmlns="http://www.w3.org/2000/svg">
<g id="help message">
<path id="icon" fill-rule="evenodd" clip-rule="evenodd" d="M19 9.5C19 13.6421 14.9706 17 10 17C8.25136 17 6.61919 16.5844 5.23797 15.8653L1 18L2.77612 13.9741C1.66033 12.7251 1 11.1768 1 9.5C1 5.35786 5.02944 2 10 2C14.9706 2 19 5.35786 19 9.5ZM8 5.36522V7.15217C8.59688 6.77826 9.19376 6.5913 9.79063 6.5913C10.1763 6.5913 10.4656 6.68696 10.6584 6.87826C10.8604 7.06087 10.9614 7.3087 10.9614 7.62174C10.9614 8.43913 10.2544 8.84783 8.84022 8.84783L8.88154 10.8174H10.7135L10.7548 9.74783C10.9477 9.74783 11.1635 9.7 11.4022 9.60435C11.641 9.5087 11.8843 9.37391 12.1322 9.2C12.3802 9.01739 12.5868 8.76957 12.7521 8.45652C12.9174 8.13478 13 7.77826 13 7.38696C13 6.65652 12.7337 6.07826 12.2011 5.65217C11.6685 5.21739 10.9706 5 10.1074 5C9.25344 5 8.55096 5.12174 8 5.36522ZM8.52342 12.813C8.52342 13.1435 8.64279 13.4261 8.88154 13.6609C9.12948 13.887 9.42792 14 9.77686 14C10.1258 14 10.4197 13.887 10.6584 13.6609C10.9063 13.4261 11.0303 13.1435 11.0303 12.813C11.0303 12.4826 10.9063 12.2043 10.6584 11.9783C10.4197 11.7435 10.1258 11.6261 9.77686 11.6261C9.42792 11.6261 9.12948 11.7435 8.88154 11.9783C8.64279 12.2043 8.52342 12.4826 8.52342 12.813Z" fill="white"/>
</g>
</svg>
