<svg width="25" height="26" viewBox="0 0 25 26" fill="none" xmlns="http://www.w3.org/2000/svg">
<g clip-path="url(#clip0_1499_6052)">
<path d="M21.875 17.4171V9.0838C21.8746 8.71846 21.7782 8.35964 21.5954 8.04335C21.4125 7.72705 21.1497 7.46439 20.8333 7.28172L13.5417 3.11505C13.225 2.9322 12.8657 2.83594 12.5 2.83594C12.1343 2.83594 11.775 2.9322 11.4583 3.11505L4.16667 7.28172C3.85027 7.46439 3.58748 7.72705 3.40465 8.04335C3.22182 8.35964 3.12537 8.71846 3.125 9.0838V17.4171C3.12537 17.7825 3.22182 18.1413 3.40465 18.4576C3.58748 18.7739 3.85027 19.0365 4.16667 19.2192L11.4583 23.3859C11.775 23.5687 12.1343 23.665 12.5 23.665C12.8657 23.665 13.225 23.5687 13.5417 23.3859L20.8333 19.2192C21.1497 19.0365 21.4125 18.7739 21.5954 18.4576C21.7782 18.1413 21.8746 17.7825 21.875 17.4171Z" stroke="white" stroke-width="3" stroke-linecap="round" stroke-linejoin="round"/>
</g>
<defs>
<clipPath id="clip0_1499_6052">
<rect width="25" height="25" fill="white" transform="translate(0 0.75)"/>
</clipPath>
</defs>
</svg>
