<svg width="19" height="19" viewBox="0 0 19 19" fill="none" xmlns="http://www.w3.org/2000/svg">
<g id="Frame" clip-path="url(#clip0_1424_30892)">
<path id="Vector" d="M3.93945 2.49992C3.93927 2.898 3.82031 3.28697 3.59777 3.61705C3.37524 3.94712 3.05927 4.20327 2.69031 4.35273C2.32135 4.50218 1.91619 4.53812 1.52668 4.45596C1.13717 4.37381 0.781037 4.17728 0.503871 3.89154C0.226705 3.6058 0.0411131 3.24385 -0.0291475 2.85202C-0.099408 2.46019 -0.0511408 2.05631 0.109476 1.69207C0.270092 1.32783 0.535751 1.01981 0.872446 0.807429C1.20914 0.595052 1.60155 0.487982 1.99945 0.499924C2.51942 0.51553 3.01284 0.733113 3.37504 1.10651C3.73723 1.4799 3.93969 1.97972 3.93945 2.49992ZM3.99945 5.97992H-0.000545874V18.4999H3.99945V5.97992ZM10.3195 5.97992H6.33945V18.4999H10.2795V11.9299C10.2795 8.26992 15.0495 7.92992 15.0495 11.9299V18.4999H18.9995V10.5699C18.9995 4.39992 11.9395 4.62992 10.2795 7.65992L10.3195 5.97992Z" fill="#959DA5"/>
</g>
<defs>
<clipPath id="clip0_1424_30892">
<rect width="19" height="18" fill="white" transform="translate(0 0.5)"/>
</clipPath>
</defs>
</svg>
