<svg width="29" height="29" viewBox="0 0 29 29" fill="none" xmlns="http://www.w3.org/2000/svg">
<path id="Icon" d="M14.5 9.5C16.5711 9.5 18.25 7.82107 18.25 5.75C18.25 3.67893 16.5711 2 14.5 2C12.4289 2 10.75 3.67893 10.75 5.75C10.75 7.82107 12.4289 9.5 14.5 9.5ZM14.5 9.5V27M14.5 27C11.1848 27 8.00537 25.683 5.66117 23.3388C3.31696 20.9946 2 17.8152 2 14.5H5.75M14.5 27C17.8152 27 20.9946 25.683 23.3388 23.3388C25.683 20.9946 27 17.8152 27 14.5H23.25" stroke="#625AFA" stroke-width="3" stroke-linecap="round" stroke-linejoin="round"/>
</svg>
