<svg width="22" height="19" viewBox="0 0 22 19" fill="none" xmlns="http://www.w3.org/2000/svg">
<g id="Frame" clip-path="url(#clip0_1424_30886)">
<path id="Vector" d="M22 2.67479C21.1778 3.04141 20.3043 3.28012 19.4099 3.38265C20.3537 2.82107 21.0601 1.93442 21.3967 0.88905C20.5082 1.41349 19.5372 1.7834 18.525 1.98302C17.9059 1.32348 17.1027 0.865265 16.2199 0.667846C15.337 0.470427 14.4152 0.542914 13.5741 0.875901C12.7329 1.20889 12.0113 1.787 11.5028 2.53522C10.9943 3.28344 10.7225 4.16721 10.7225 5.07187C10.7215 5.41866 10.762 5.76432 10.8431 6.10148C9.04843 6.01053 7.29277 5.544 5.68965 4.73205C4.08653 3.9201 2.67162 2.78079 1.53638 1.38777C0.958857 2.38148 0.782115 3.55805 1.04219 4.67758C1.30227 5.79711 1.97958 6.77528 2.93601 7.41263C2.21991 7.38992 1.51952 7.1969 0.89287 6.84956V6.90587C0.892853 7.94778 1.25332 8.95761 1.9131 9.76401C2.57287 10.5704 3.49133 11.1237 4.51261 11.33C4.12481 11.4369 3.72438 11.491 3.32212 11.4909C3.03613 11.4884 2.75088 11.4615 2.46947 11.4104C2.75802 12.3071 3.31924 13.0913 4.07484 13.6536C4.83044 14.216 5.74274 14.5285 6.68446 14.5476C5.08433 15.8004 3.11013 16.4802 1.07788 16.4781C0.717662 16.4769 0.357796 16.4554 0 16.4137C2.06354 17.7394 4.46505 18.4431 6.91773 18.4408C15.219 18.4408 19.7558 11.5633 19.7558 5.60276C19.7558 5.40971 19.7477 5.20861 19.7397 5.01556C20.6263 4.37596 21.3918 3.58328 22 2.67479Z" fill="#959DA5"/>
</g>
<defs>
<clipPath id="clip0_1424_30886">
<rect width="22" height="17.8815" fill="white" transform="translate(0 0.559082)"/>
</clipPath>
</defs>
</svg>
