<svg width="23" height="17" viewBox="0 0 23 17" fill="none" xmlns="http://www.w3.org/2000/svg">
<g id="Frame" clip-path="url(#clip0_1424_30895)">
<path id="Vector" d="M22.3056 3.00589C22.1814 2.52674 21.9335 2.08866 21.5866 1.73557C21.2397 1.38248 20.806 1.12678 20.3292 0.994123C18.5645 0.500006 11.4939 0.500006 11.4939 0.500006C8.54559 0.464575 5.59814 0.621772 2.67035 0.970594C2.1933 1.11295 1.76041 1.37453 1.41253 1.73064C1.06466 2.08675 0.813271 2.52565 0.682111 3.00589C0.365801 4.81994 0.212249 6.65862 0.223287 8.50001C0.211492 10.3414 0.36505 12.1802 0.682111 13.9941C0.810572 14.4731 1.06141 14.9104 1.41 15.2631C1.75858 15.6158 2.19292 15.8718 2.67035 16.0059C4.45858 16.5 11.4939 16.5 11.4939 16.5C14.4461 16.5355 17.3974 16.3783 20.3292 16.0294C20.806 15.8968 21.2397 15.6411 21.5866 15.288C21.9335 14.9349 22.1814 14.4968 22.3056 14.0177C22.63 12.2045 22.7875 10.3654 22.7762 8.52354C22.8005 6.67334 22.6429 4.82524 22.3056 3.00589ZM9.24682 11.9235V5.07648L15.1292 8.50001L9.24682 11.9235Z" fill="#959DA5"/>
</g>
<defs>
<clipPath id="clip0_1424_30895">
<rect width="22.5529" height="16" fill="white" transform="translate(0.222656 0.5)"/>
</clipPath>
</defs>
</svg>
