<svg width="30" height="30" viewBox="0 0 30 30" fill="none" xmlns="http://www.w3.org/2000/svg">
<path d="M26.8 13.8125L15.3125 25.3C13.9052 26.7073 11.9965 27.4979 10.0062 27.4979C8.01602 27.4979 6.1073 26.7073 4.7 25.3C3.29269 23.8927 2.50208 21.984 2.50208 19.9938C2.50208 18.0035 3.29269 16.0948 4.7 14.6875L16.1875 3.20002C17.1257 2.26182 18.3982 1.73474 19.725 1.73474C21.0518 1.73474 22.3243 2.26182 23.2625 3.20002C24.2007 4.13822 24.7278 5.4107 24.7278 6.73752C24.7278 8.06434 24.2007 9.33682 23.2625 10.275L11.7625 21.7625C11.2934 22.2316 10.6572 22.4952 9.99375 22.4952C9.33034 22.4952 8.6941 22.2316 8.225 21.7625C7.75589 21.2934 7.49236 20.6572 7.49236 19.9938C7.49236 19.3304 7.75589 18.6941 8.225 18.225L18.8375 7.62502" stroke="#625AFA" stroke-width="3" stroke-linecap="round" stroke-linejoin="round"/>
</svg>
