<svg width="195" height="201" viewBox="0 0 195 201" fill="none" xmlns="http://www.w3.org/2000/svg">
<path d="M45.3778 31.1363L96.5 14.5257L147.622 31.1363L179.217 74.6235V128.377L147.622 171.864L96.5 188.474L45.3778 171.864L13.7826 128.377V74.6235L45.3778 31.1363Z" stroke="#505050"/>
<path d="M56.7518 50.6032L97 37.5257L137.248 50.6032L162.123 84.8403V127.16L137.248 161.397L97 174.474L56.7518 161.397L31.8771 127.16V84.8403L56.7518 50.6032Z" stroke="#505050"/>
<path d="M67.7136 66.879L96.5 57.5257L125.286 66.879L143.077 91.3661V121.634L125.286 146.121L96.5 155.474L67.7136 146.121L49.9227 121.634V91.3661L67.7136 66.879Z" stroke="#505050"/>
<path d="M79.6755 82.1548L97 76.5257L114.325 82.1548L125.032 96.8919V115.108L114.325 129.845L97 135.474L79.6755 129.845L68.9683 115.108V96.8919L79.6755 82.1548Z" stroke="#505050"/>
<path d="M97 106L97 0" stroke="#505050"/>
<path d="M96.8183 106.268L157 18" stroke="#505050"/>
<path d="M97 106L194 69" stroke="#505050"/>
<path d="M97 106L194 133" stroke="#505050"/>
<path d="M97 106L157 184" stroke="#505050"/>
<path d="M97 106L97 201" stroke="#505050"/>
<path d="M97 106L38 182" stroke="#505050"/>
<path d="M97 107L1 133" stroke="#505050"/>
<path d="M97 106L1 69" stroke="#505050"/>
<path d="M97 106L38 22" stroke="#505050"/>
</svg>
