<svg width="25" height="24" viewBox="0 0 25 24" fill="none" xmlns="http://www.w3.org/2000/svg">
<g id="Frame">
<path id="Vector" d="M7.82812 1.75C7.82812 0.784 8.61212 0 9.57812 0H15.0781C16.0441 0 16.8281 0.784 16.8281 1.75V4H21.5781C22.5441 4 23.3281 4.784 23.3281 5.75V20.25C23.3281 20.7141 23.1437 21.1592 22.8156 21.4874C22.4874 21.8156 22.0423 22 21.5781 22H3.07812C2.614 22 2.16888 21.8156 1.84069 21.4874C1.5125 21.1592 1.32813 20.7141 1.32812 20.25V5.75C1.32812 4.784 2.11212 4 3.07812 4H7.82812V1.75ZM2.82812 11.99V20.25C2.82812 20.388 2.94012 20.5 3.07812 20.5H21.5781C21.6444 20.5 21.708 20.4737 21.7549 20.4268C21.8018 20.3799 21.8281 20.3163 21.8281 20.25V11.99C21.0608 12.6431 20.0858 13.0012 19.0781 13H5.57812C4.57049 13.0012 3.59545 12.6431 2.82812 11.99ZM21.8281 8.75V5.75C21.8281 5.6837 21.8018 5.62011 21.7549 5.57322C21.708 5.52634 21.6444 5.5 21.5781 5.5H3.07812C3.01182 5.5 2.94823 5.52634 2.90135 5.57322C2.85446 5.62011 2.82812 5.6837 2.82812 5.75V8.75C2.82812 9.47935 3.11786 10.1788 3.63358 10.6945C4.14931 11.2103 4.84878 11.5 5.57812 11.5H19.0781C19.8075 11.5 20.5069 11.2103 21.0227 10.6945C21.5384 10.1788 21.8281 9.47935 21.8281 8.75ZM15.3281 1.75C15.3281 1.6837 15.3018 1.62011 15.2549 1.57322C15.208 1.52634 15.1444 1.5 15.0781 1.5H9.57812C9.51182 1.5 9.44823 1.52634 9.40135 1.57322C9.35446 1.62011 9.32812 1.6837 9.32812 1.75V4H15.3281V1.75Z" fill="white"/>
</g>
</svg>
