<svg width="20" height="20" viewBox="0 0 20 20" fill="none" xmlns="http://www.w3.org/2000/svg">
<g id="question">
<g id="Union">
<path d="M9 14C9 13.4477 9.44771 13 10 13C10.5523 13 11 13.4477 11 14C11 14.5523 10.5523 15 10 15C9.44771 15 9 14.5523 9 14Z" fill="white"/>
<path d="M8.5 7C8.5 6.52235 8.68488 6.1947 8.94509 5.97786C9.21678 5.75146 9.59816 5.625 10 5.625C10.4018 5.625 10.7832 5.75146 11.0549 5.97786C11.3151 6.19471 11.5 6.52236 11.5 7.00001C11.5 7.41251 11.3983 7.68865 11.2715 7.87891C11.1426 8.07229 10.9671 8.20745 10.7764 8.30279C10.5838 8.39911 10.3851 8.44976 10.2303 8.47555C10.1541 8.48825 10.0917 8.49441 10.0503 8.49736C10.0297 8.49884 10.0146 8.4995 10.0058 8.49979L9.99841 8.5L10 8.5L10 9C10 8.5 10.0002 8.5 10 8.5L9.99841 8.5C9.86638 8.50042 9.73984 8.55305 9.64645 8.64645C9.55268 8.74021 9.5 8.86739 9.5 9V11H10.5V9.44255C10.7063 9.40092 10.9628 9.32764 11.2236 9.19722C11.5329 9.04256 11.8574 8.80272 12.1035 8.43361C12.3517 8.06136 12.5 7.5875 12.5 7.00001C12.5 6.22765 12.1849 5.6178 11.6951 5.20964C11.2168 4.81105 10.5982 4.625 10 4.625C9.40184 4.625 8.78322 4.81104 8.30491 5.20964C7.81512 5.61779 7.5 6.22764 7.5 7H8.5Z" fill="white"/>
<path fill-rule="evenodd" clip-rule="evenodd" d="M19 10C19 14.9706 14.9706 19 10 19C5.02944 19 1 14.9706 1 10C1 5.02944 5.02944 1 10 1C14.9706 1 19 5.02944 19 10ZM18 10C18 14.4183 14.4183 18 10 18C5.58172 18 2 14.4183 2 10C2 5.58172 5.58172 2 10 2C14.4183 2 18 5.58172 18 10Z" fill="white"/>
</g>
</g>
</svg>
