<svg width="25" height="24" viewBox="0 0 25 24" fill="none" xmlns="http://www.w3.org/2000/svg">
<g id="Frame">
<path id="Vector" d="M3.15614 4.32799C5.58814 1.89599 9.82814 1.88099 12.2631 4.31699C12.2871 4.34099 12.3091 4.36699 12.3301 4.39299C13.7211 3.31499 15.3231 2.50699 17.1071 2.50299C17.9285 2.50001 18.7424 2.65975 19.5017 2.97299C20.261 3.28622 20.9508 3.74675 21.5311 4.32799C22.0901 4.88799 22.5541 5.49299 22.8711 6.24999C23.1891 7.00599 23.3411 7.86699 23.3391 8.91299C23.3391 11.885 21.2921 14.721 19.0701 16.987C16.9721 19.127 14.5631 20.911 13.0961 21.996L12.7851 22.226C12.6555 22.3223 12.4982 22.3744 12.3366 22.3744C12.1751 22.3744 12.0178 22.3223 11.8881 22.226L11.5761 21.996C10.1101 20.911 7.70114 19.127 5.60314 16.987C3.38314 14.724 1.33914 11.892 1.33314 8.92399C1.30644 8.07395 1.45445 7.22748 1.76802 6.43694C2.08158 5.6464 2.55404 4.92861 3.15614 4.32799ZM11.1891 5.36999C9.34314 3.53599 6.06514 3.54699 4.22014 5.39199C3.75918 5.85146 3.39839 6.40144 3.16054 7.00727C2.92268 7.6131 2.81291 8.26163 2.83814 8.91199C2.83814 11.244 4.48814 13.702 6.67714 15.934C8.62414 17.92 10.8611 19.594 12.3371 20.686C13.0663 20.1502 13.786 19.6018 14.4961 19.041L12.3561 17.067C12.2835 17 12.2248 16.9194 12.1833 16.8297C12.1419 16.7401 12.1185 16.6431 12.1145 16.5444C12.1105 16.4457 12.126 16.3472 12.1601 16.2544C12.1942 16.1617 12.2462 16.0766 12.3131 16.004C12.3801 15.9314 12.4607 15.8727 12.5504 15.8312C12.6401 15.7897 12.737 15.7663 12.8357 15.7623C12.9344 15.7583 13.033 15.7738 13.1257 15.8079C13.2184 15.842 13.3035 15.894 13.3761 15.961L15.6711 18.079C16.2871 17.559 16.9131 16.999 17.5211 16.407L15.3611 14.415C15.2218 14.2778 15.1414 14.0918 15.1367 13.8964C15.132 13.7009 15.2036 13.5113 15.3362 13.3677C15.4688 13.224 15.6521 13.1376 15.8473 13.1266C16.0425 13.1157 16.2343 13.1811 16.3821 13.309L18.5701 15.329C19.1189 14.7365 19.6293 14.1096 20.0981 13.452L19.5131 12.866L17.8621 11.214C16.7841 10.14 15.0251 10.159 13.9271 11.257C13.5481 11.637 13.1671 12.015 12.7951 12.383C11.6551 13.507 9.83514 13.46 8.72514 12.34C8.23614 11.845 7.74514 11.352 7.25014 10.858C7.11667 10.7242 7.03844 10.5451 7.03103 10.3563C7.02362 10.1675 7.08756 9.9828 7.21014 9.83899C7.44414 9.56299 7.69314 9.26299 7.95514 8.94599C8.88314 7.82599 9.97814 6.50399 11.1891 5.36999ZM20.9141 12.14C21.4931 11.06 21.8341 9.97299 21.8341 8.91199C21.8361 8.01299 21.7061 7.35999 21.4841 6.83199C21.2641 6.30599 20.9331 5.85799 20.4671 5.39199C20.0271 4.95077 19.5039 4.60125 18.9278 4.36368C18.3518 4.12611 17.7343 4.00521 17.1111 4.00799C15.4511 4.01199 13.8611 4.95899 12.3411 6.35399C11.1611 7.43799 10.1081 8.70699 9.15314 9.85999L8.80214 10.283C9.13314 10.615 9.46514 10.947 9.79514 11.281C10.0489 11.5424 10.3961 11.6924 10.7604 11.698C11.1247 11.7036 11.4764 11.5644 11.7381 11.311C12.1081 10.946 12.4861 10.571 12.8631 10.193C14.5251 8.52999 17.2361 8.46699 18.9231 10.148C19.4831 10.706 20.0431 11.268 20.5811 11.806L20.9141 12.14Z" fill="white"/>
</g>
</svg>
