<svg width="25" height="24" viewBox="0 0 25 24" fill="none" xmlns="http://www.w3.org/2000/svg">
<g id="Frame">
<path id="Vector" d="M6.32812 9V7.25C6.32812 3.845 8.83113 1 12.3281 1C15.8251 1 18.3281 3.845 18.3281 7.25V9H18.8281C19.4912 9 20.1271 9.26339 20.5959 9.73223C21.0647 10.2011 21.3281 10.837 21.3281 11.5V19.5C21.3281 20.163 21.0647 20.7989 20.5959 21.2678C20.1271 21.7366 19.4912 22 18.8281 22H5.82812C5.16508 22 4.5292 21.7366 4.06036 21.2678C3.59152 20.7989 3.32812 20.163 3.32812 19.5V11.5C3.32812 10.837 3.59152 10.2011 4.06036 9.73223C4.5292 9.26339 5.16508 9 5.82812 9H6.32812ZM4.82812 11.5V19.5C4.82812 19.7652 4.93348 20.0196 5.12102 20.2071C5.30855 20.3946 5.56291 20.5 5.82812 20.5H18.8281C19.0933 20.5 19.3477 20.3946 19.5352 20.2071C19.7228 20.0196 19.8281 19.7652 19.8281 19.5V11.5C19.8281 11.2348 19.7228 10.9804 19.5352 10.7929C19.3477 10.6054 19.0933 10.5 18.8281 10.5H5.82812C5.56291 10.5 5.30855 10.6054 5.12102 10.7929C4.93348 10.9804 4.82812 11.2348 4.82812 11.5ZM7.82812 7.25V9H16.8281V7.25C16.8281 4.58 14.9061 2.5 12.3281 2.5C9.75012 2.5 7.82812 4.58 7.82812 7.25Z" fill="white"/>
</g>
</svg>
