<svg width="24" height="24" viewBox="0 0 24 24" fill="none" xmlns="http://www.w3.org/2000/svg">
<g id="settings/ic_settings">
<path id="icon" fill-rule="evenodd" clip-rule="evenodd" d="M11 2C10.4478 2 10 2.44772 10 3V4.25203C8.57009 4.62008 7.29488 5.37353 6.29173 6.39507L5.20573 5.76807C4.72744 5.49192 4.11585 5.6558 3.83971 6.13409L2.83971 7.86614C2.56357 8.34443 2.72744 8.95603 3.20573 9.23217L4.28998 9.85816C4.10102 10.5399 4.00004 11.2581 4.00004 12C4.00004 12.7419 4.10104 13.4603 4.29005 14.1421L3.20579 14.7681C2.7275 15.0442 2.56363 15.6558 2.83977 16.1341L3.83977 17.8661C4.11591 18.3444 4.7275 18.5083 5.20579 18.2322L6.2919 17.6051C7.29502 18.6265 8.57018 19.3799 10 19.748V21C10 21.5523 10.4478 22 11 22H13C13.5523 22 14 21.5523 14 21V19.748C15.4299 19.3799 16.705 18.6266 17.7081 17.6051L18.7942 18.2322C19.2725 18.5083 19.8841 18.3444 20.1602 17.8661L21.1602 16.1341C21.4363 15.6558 21.2725 15.0442 20.7942 14.7681L19.71 14.1421C19.899 13.4603 20 12.742 20 12C20 11.2581 19.8991 10.5398 19.7101 9.85813L20.7943 9.23217C21.2726 8.95603 21.4365 8.34444 21.1603 7.86614L20.1603 6.13409C19.8842 5.6558 19.2726 5.49192 18.7943 5.76807L17.7083 6.39505C16.7052 5.37353 15.43 4.62007 14 4.25203V3C14 2.44772 13.5523 2 13 2H11ZM16 12C16 14.2091 14.2092 16 12 16C9.7909 16 8.00004 14.2091 8.00004 12C8.00004 9.79086 9.7909 8 12 8C14.2092 8 16 9.79086 16 12Z" fill="white" fill-opacity="0.8"/>
</g>
</svg>
