<svg width="20" height="20" viewBox="0 0 20 20" fill="none" xmlns="http://www.w3.org/2000/svg">
<g id="star-fill-24">
<path id="Icon" d="M10.5605 0.556404C10.4552 0.343069 10.2379 0.208008 10 0.208008C9.76212 0.208008 9.54485 0.343069 9.43956 0.556404L6.89096 5.72042L1.19213 6.54851C0.956698 6.58272 0.761106 6.74762 0.68759 6.97388C0.614075 7.20014 0.675385 7.44851 0.845743 7.61457L4.96946 11.6342L3.99598 17.31C3.95577 17.5445 4.05216 17.7815 4.24462 17.9213C4.43709 18.0611 4.69225 18.0796 4.90282 17.9689L10 15.2891L15.0972 17.9689C15.3078 18.0796 15.5629 18.0611 15.7554 17.9213C15.9479 17.7815 16.0443 17.5445 16.0041 17.31L15.0306 11.6342L19.1543 7.61457C19.3246 7.44851 19.386 7.20014 19.3124 6.97388C19.2389 6.74762 19.0433 6.58272 18.8079 6.54851L13.1091 5.72042L10.5605 0.556404Z" fill="#625AFA"/>
</g>
</svg>
