<svg width="18" height="19" viewBox="0 0 18 19" fill="none" xmlns="http://www.w3.org/2000/svg">
<g id="Frame" clip-path="url(#clip0_1281_3727)">
<path id="Vector" d="M9.39286 0.515C10.3754 0.5 11.3504 0.5075 12.3254 0.5C12.3854 1.6475 12.7979 2.8175 13.6379 3.6275C14.4779 4.46 15.6629 4.8425 16.8179 4.97V7.9925C15.7379 7.955 14.6504 7.73 13.6679 7.265C13.2404 7.07 12.8429 6.8225 12.4529 6.5675C12.4454 8.7575 12.4604 10.9475 12.4379 13.13C12.3779 14.18 12.0329 15.2225 11.4254 16.085C10.4429 17.525 8.74036 18.4625 6.99286 18.4925C5.92036 18.5525 4.84786 18.26 3.93286 17.72C2.41786 16.8275 1.35286 15.1925 1.19536 13.4375C1.18036 13.0625 1.17286 12.6875 1.18786 12.32C1.32286 10.895 2.02786 9.53 3.12286 8.6C4.36786 7.52 6.10786 7.0025 7.73536 7.31C7.75036 8.42 7.70536 9.53 7.70536 10.64C6.96286 10.4 6.09286 10.4675 5.44036 10.9175C4.96786 11.225 4.60786 11.6975 4.42036 12.23C4.26286 12.6125 4.30786 13.0325 4.31536 13.4375C4.49536 14.6675 5.68036 15.7025 6.94036 15.59C7.78036 15.5825 8.58286 15.095 9.01786 14.3825C9.16036 14.135 9.31786 13.88 9.32536 13.5875C9.40036 12.245 9.37036 10.91 9.37786 9.5675C9.38536 6.545 9.37036 3.53 9.39286 0.515Z" fill="#959DA5"/>
</g>
<defs>
<clipPath id="clip0_1281_3727">
<rect width="18" height="18" fill="white" transform="translate(0 0.5)"/>
</clipPath>
</defs>
</svg>
