<svg width="20" height="20" viewBox="0 0 20 20" fill="none" xmlns="http://www.w3.org/2000/svg">
<g id="Users" clip-path="url(#clip0_1406_8846)">
<path id="Icon" d="M14.1667 17.5V15.8333C14.1667 14.9493 13.8155 14.1014 13.1903 13.4763C12.5652 12.8512 11.7174 12.5 10.8333 12.5H4.16666C3.28261 12.5 2.43476 12.8512 1.80964 13.4763C1.18452 14.1014 0.833328 14.9493 0.833328 15.8333V17.5M19.1667 17.5V15.8333C19.1661 15.0948 18.9203 14.3773 18.4678 13.7936C18.0153 13.2099 17.3818 12.793 16.6667 12.6083M13.3333 2.60833C14.0503 2.79192 14.6859 3.20892 15.1397 3.79359C15.5935 4.37827 15.8399 5.09736 15.8399 5.8375C15.8399 6.57764 15.5935 7.29673 15.1397 7.88141C14.6859 8.46608 14.0503 8.88308 13.3333 9.06667M10.8333 5.83333C10.8333 7.67428 9.34094 9.16667 7.49999 9.16667C5.65905 9.16667 4.16666 7.67428 4.16666 5.83333C4.16666 3.99238 5.65905 2.5 7.49999 2.5C9.34094 2.5 10.8333 3.99238 10.8333 5.83333Z" stroke="#625AFA" stroke-width="2.5" stroke-linecap="round" stroke-linejoin="round"/>
</g>
<defs>
<clipPath id="clip0_1406_8846">
<rect width="20" height="20" fill="white"/>
</clipPath>
</defs>
</svg>
