<svg width="25" height="26" viewBox="0 0 25 26" fill="none" xmlns="http://www.w3.org/2000/svg">
<g clip-path="url(#clip0_1499_9076)">
<path d="M17.7082 22.625V20.5417C17.7082 19.4366 17.2692 18.3768 16.4878 17.5954C15.7064 16.814 14.6466 16.375 13.5415 16.375H5.20817C4.1031 16.375 3.04329 16.814 2.26189 17.5954C1.48049 18.3768 1.0415 19.4366 1.0415 20.5417V22.625M23.9582 22.625V20.5417C23.9575 19.6185 23.6502 18.7216 23.0846 17.992C22.519 17.2624 21.7271 16.7412 20.8332 16.5104M16.6665 4.01042C17.5628 4.2399 18.3572 4.76115 18.9245 5.49199C19.4918 6.22283 19.7997 7.1217 19.7997 8.04687C19.7997 8.97205 19.4918 9.87092 18.9245 10.6018C18.3572 11.3326 17.5628 11.8539 16.6665 12.0833M13.5415 8.04167C13.5415 10.3429 11.676 12.2083 9.37484 12.2083C7.07365 12.2083 5.20817 10.3429 5.20817 8.04167C5.20817 5.74048 7.07365 3.875 9.37484 3.875C11.676 3.875 13.5415 5.74048 13.5415 8.04167Z" stroke="white" stroke-width="3" stroke-linecap="round" stroke-linejoin="round"/>
</g>
<defs>
<clipPath id="clip0_1499_9076">
<rect width="25" height="25" fill="white" transform="translate(0 0.75)"/>
</clipPath>
</defs>
</svg>
